<?xml version="1.0" encoding="UTF-8"?>
<svg id="Layer_1" data-name="Layer 1" xmlns="http://www.w3.org/2000/svg" viewBox="0 0 1200 1200">
  <path d="M743.52,116.16c143.61,7.56,263.46,141.37,277.44,283.68,12.13,123.54-90.53,226.95-206.88,253.2-100.09,24-205.87-.26-301.38-34.38-16.86-6.02-35.35,3.12-40.68,20.21-40.13,128.54-141.27,453.3-223.9,487.89-4.7,1.97-9.98,1.99-14.77.25l-.08-.03c-20.51-7.49-59.15-40.19-47.08-58.39,92.05-138.7,167.33-289.86,219.12-449.11,7.6-23.36-2.83-48.8-24.6-60.18-70.6-36.93-202.51-108.54-202.1-137.2-2.74-28.7,28.09-55.64,49.23-36.75,52.56,46.95,109.78,96.72,180.21,123.88,14.9,5.75,31.6-2,36.77-17.11,39.26-114.66,83.35-242.81,164.76-331.56,36.34-32.55,85.69-46.2,133.93-44.39ZM525.59,556.78c411.47,159.81,535.1-210.23,278.13-353.39-17.03-9.49-35.82-15.55-55.24-17.3-144.52-13.03-206.63,209.55-242.13,331.77-4.65,16,3.72,32.89,19.25,38.92Z"/>
</svg>